<?xml version="1.0" standalone="no"?>
<!DOCTYPE svg PUBLIC "-//W3C//DTD SVG 20010904//EN"
 "http://www.w3.org/TR/2001/REC-SVG-20010904/DTD/svg10.dtd">
<svg version="1.0" xmlns="http://www.w3.org/2000/svg"
 width="283.000000pt" height="227.000000pt" viewBox="0 0 283.000000 227.000000"
 preserveAspectRatio="xMidYMid meet">

<g transform="translate(0.000000,227.000000) scale(0.100000,-0.100000)"
fill="#000000" stroke="none">
<path d="M2405 2069 l-160 -40 -35 -99 -35 -100 -902 0 -903 0 0 -21 c0 -17
122 -561 205 -915 l26 -111 91 -7 c50 -3 318 -6 594 -6 l504 0 -27 -72 c-34
-93 -38 -98 -85 -98 -57 0 -106 -27 -141 -77 l-31 -43 -206 0 -206 0 -38 46
c-48 58 -87 74 -174 74 -58 0 -75 -4 -113 -29 -60 -38 -92 -103 -92 -186 0
-96 37 -155 123 -194 42 -19 92 -20 168 -5 30 6 97 67 112 103 15 38 35 41
232 41 154 0 198 -7 198 -32 0 -22 52 -79 90 -98 48 -24 166 -28 208 -6 101
53 143 195 88 297 l-23 45 166 459 c92 253 203 560 246 681 l80 222 123 27
c67 16 125 32 127 36 8 13 -28 149 -39 148 -6 0 -83 -18 -171 -40z m-1727
-541 l3 -148 -31 0 c-16 0 -30 2 -30 5 0 3 -14 66 -30 141 -17 74 -28 140 -24
145 3 6 29 9 57 7 l52 -3 3 -147z m292 2 l0 -150 -102 0 -103 0 1 143 c1 78 2
145 3 150 0 4 46 7 101 7 l100 0 0 -150z m298 -2 l3 -148 -106 0 -105 0 0 150
0 151 103 -3 102 -3 3 -147z m290 0 l3 -148 -106 0 -105 0 0 150 0 151 103 -3
102 -3 3 -147z m292 2 l0 -150 -105 0 -105 0 0 150 0 150 105 0 105 0 0 -150z
m250 98 c-19 -55 -63 -172 -82 -220 -9 -24 -16 -28 -49 -28 l-39 0 0 143 c0
79 3 147 7 150 3 4 46 7 94 7 l88 0 -19 -52z m-1421 -410 l-1 -73 -13 55 c-18
72 -18 90 0 90 12 0 15 -14 14 -72z m291 -108 l0 -180 -105 0 -105 0 0 164 c0
90 3 171 6 180 5 13 24 16 105 16 l99 0 0 -180z m298 3 l-3 -178 -102 -3 -103
-3 0 181 0 180 105 0 105 0 -2 -177z m292 -3 l0 -180 -105 0 -105 0 0 180 0
180 105 0 105 0 0 -180z m290 0 l0 -180 -105 0 -105 0 0 180 0 180 105 0 105
0 0 -180z m120 173 c0 -5 -9 -30 -20 -58 l-19 -50 -1 58 c0 50 2 57 20 57 11
0 20 -3 20 -7z"/>
</g>
</svg>
