<?xml version="1.0" standalone="no"?>
<!DOCTYPE svg PUBLIC "-//W3C//DTD SVG 20010904//EN"
 "http://www.w3.org/TR/2001/REC-SVG-20010904/DTD/svg10.dtd">
<svg version="1.0" xmlns="http://www.w3.org/2000/svg"
 width="237.000000pt" height="79.000000pt" viewBox="0 0 237.000000 79.000000"
 preserveAspectRatio="xMidYMid meet">

<g transform="translate(0.000000,79.000000) scale(0.100000,-0.100000)"
fill="#000000" stroke="none">
<path d="M303 553 c-97 -25 -143 -41 -143 -50 0 -21 26 -26 72 -15 23 6 44 10
45 8 2 -2 -19 -50 -46 -107 -27 -57 -55 -121 -62 -142 -13 -36 -12 -40 6 -53
27 -20 35 -18 35 10 0 28 14 64 82 208 l51 107 64 15 c36 8 71 12 79 9 10 -4
14 3 14 21 0 35 -19 34 -197 -11z"/>
<path d="M886 455 c-42 -94 -57 -113 -44 -53 13 54 6 78 -20 78 -14 0 -29 -20
-55 -73 -35 -72 -37 -74 -69 -70 -60 8 -61 12 -12 46 40 26 50 38 52 65 3 32
3 32 -39 32 -46 0 -119 -19 -119 -31 0 -4 4 -11 10 -14 12 -7 -25 -85 -41 -85
-6 0 -7 -5 -4 -10 4 -6 1 -25 -5 -44 -13 -40 -4 -72 15 -56 7 6 16 22 19 36 6
24 10 25 69 22 l62 -3 5 -40 5 -40 23 36 c12 20 22 43 22 50 1 8 7 25 16 39
14 24 14 23 9 -26 -7 -57 1 -69 37 -55 16 6 39 41 77 119 46 94 53 113 42 126
-8 9 -16 16 -20 16 -3 0 -19 -30 -35 -65z m-211 -25 c-10 -17 -45 -32 -45 -20
0 6 10 15 23 20 29 12 29 12 22 0z"/>
<path d="M1037 509 c-9 -6 -36 -38 -58 -72 -23 -34 -48 -67 -56 -74 -11 -9
-13 -22 -8 -52 6 -36 9 -39 25 -29 10 7 21 20 24 31 7 29 50 19 54 -13 7 -60
12 -72 27 -60 8 7 15 29 15 49 0 20 9 72 19 116 11 44 17 83 15 87 -11 18 -40
26 -57 17z m0 -104 c-11 -48 -14 -50 -36 -36 -12 8 -10 16 13 45 15 20 28 36
30 36 2 0 -1 -20 -7 -45z"/>
<path d="M1337 498 c-8 -13 -29 -60 -47 -105 -36 -88 -49 -102 -30 -33 6 24 9
54 5 68 -6 25 -7 24 -62 -29 l-55 -54 26 53 c29 58 28 105 -2 80 -20 -16 -92
-172 -92 -198 0 -35 45 -25 87 21 l38 40 0 -43 c0 -41 1 -43 30 -43 22 0 35 8
51 32 33 49 94 201 88 218 -9 21 -21 19 -37 -7z"/>
<path d="M1477 509 c-9 -6 -36 -38 -58 -72 -23 -34 -48 -67 -56 -74 -11 -9
-13 -22 -8 -52 6 -36 9 -39 25 -29 10 7 21 20 24 31 7 29 50 19 54 -13 7 -60
12 -72 27 -60 8 7 15 29 15 49 0 20 9 72 19 116 11 44 17 83 15 87 -11 18 -40
26 -57 17z m0 -104 c-11 -48 -14 -50 -36 -36 -12 8 -10 16 13 45 15 20 28 36
30 36 2 0 -1 -20 -7 -45z"/>
<path d="M1662 465 l-39 -45 -16 40 c-16 42 -22 46 -46 31 -12 -8 -11 -17 7
-55 12 -25 22 -51 22 -58 0 -7 -18 -40 -39 -72 -22 -33 -38 -63 -35 -68 8 -13
54 -9 54 4 0 7 25 50 56 97 l57 86 53 2 c30 1 54 0 54 -2 0 -1 -31 -24 -70
-51 -68 -46 -85 -73 -58 -90 7 -5 52 -7 102 -5 70 2 96 -1 122 -15 31 -17 35
-17 69 -1 23 11 35 24 35 37 0 23 -6 24 -40 5 -34 -19 -39 -18 -33 4 7 28 34
49 66 53 l28 3 -21 23 c-11 12 -16 22 -10 22 5 0 10 7 10 15 0 16 19 19 68 9
l31 -6 -20 -39 c-10 -22 -24 -39 -30 -39 -6 0 -7 -5 -4 -10 4 -6 1 -25 -5 -44
-13 -40 -4 -72 15 -56 7 6 16 22 20 37 6 25 7 25 81 21 72 -5 75 -4 72 16 -2
15 -11 22 -33 24 -57 5 -58 11 -9 45 40 26 50 38 52 65 3 32 3 32 -42 32 -24
0 -57 -5 -72 -10 -20 -8 -29 -8 -35 1 -5 9 -28 10 -81 5 -40 -3 -119 -7 -175
-9 -91 -2 -103 0 -103 15 0 33 -19 28 -58 -17z m267 -41 c3 -3 -10 -19 -28
-38 -17 -18 -31 -39 -29 -47 2 -10 -17 -15 -77 -20 -44 -4 -81 -6 -83 -4 -2 2
36 30 85 64 82 56 109 65 132 45z m236 6 c-10 -17 -45 -32 -45 -20 0 6 10 15
23 20 29 12 29 12 22 0z"/>
<path d="M397 476 c-20 -29 -57 -138 -57 -165 0 -12 11 -23 29 -29 25 -9 33
-7 55 13 l24 23 -1 -27 c-2 -19 3 -27 18 -29 17 -2 25 13 54 103 42 129 34
151 -27 73 -23 -29 -55 -69 -72 -88 l-32 -35 6 34 c4 19 13 48 21 64 16 33 20
87 6 87 -5 0 -16 -11 -24 -24z"/>
</g>
</svg>
